<?xml version="1.0" encoding="UTF-8" standalone="no"?>
<svg width="256px" height="256px" viewBox="0 0 256 256" version="1.1" xmlns="http://www.w3.org/2000/svg" xmlns:xlink="http://www.w3.org/1999/xlink" xmlns:sketch="http://www.bohemiancoding.com/sketch/ns">
    <!-- Generator: Sketch 3.5.1 (25234) - http://www.bohemiancoding.com/sketch -->
    <title>frameworks/logo_express</title>
    <desc>Created with Sketch.</desc>
    <defs></defs>
    <g id="Page-1" stroke="none" stroke-width="1" fill="none" fill-rule="evenodd" sketch:type="MSPage">
        <g id="frameworks/logo_express" sketch:type="MSArtboardGroup" fill="#3B4854">
            <path d="M1.5980025,121.78184 L35.9550562,121.78184 C36.0615902,118.963547 35.7819426,116.251645 35.1161049,113.646053 C34.4502672,111.040462 33.3849428,108.727369 31.9200999,106.706706 C30.4552569,104.686043 28.5643062,103.06422 26.247191,101.841187 C23.9300758,100.618154 21.1735491,100.006647 17.9775281,100.006647 C15.6870464,100.006647 13.4498653,100.485218 11.2659176,101.442374 C9.08196994,102.39953 7.16438612,103.795362 5.51310861,105.629911 C3.86183111,107.46446 2.53017568,109.711085 1.51810237,112.369852 C0.506029064,115.028619 0,118.059568 0,121.462789 C0,124.493784 0.346230412,127.325328 1.03870162,129.957507 C1.73117283,132.589687 2.79649718,134.876192 4.23470662,136.817092 C5.67291605,138.757992 7.5239171,140.260173 9.78776529,141.32368 C12.0516135,142.387186 14.7815071,142.892345 17.9775281,142.839169 C22.6650255,142.839169 26.6067256,141.523099 29.8027466,138.89092 C32.9987675,136.258741 34.8897183,132.549816 35.4756554,127.764036 L33.8776529,127.764036 C33.1851817,132.28394 31.41408,135.673817 28.5642946,137.933769 C25.7145093,140.193721 22.1323562,141.32368 17.8177278,141.32368 C14.8880419,141.32368 12.4111628,140.818521 10.3870162,139.80819 C8.36286961,138.797858 6.71161688,137.41532 5.43320849,135.660534 C4.1548001,133.905748 3.20932474,131.845234 2.59675406,129.478932 C1.98418337,127.112629 1.65126951,124.546958 1.5980025,121.78184 L1.5980025,121.78184 Z M34.3570537,120.186588 L1.5980025,120.186588 C1.75780355,117.315119 2.29046572,114.736154 3.19600499,112.449614 C4.10154427,110.163075 5.2867176,108.20891 6.75156055,106.587062 C8.2164035,104.965215 9.92092245,103.728906 11.8651685,102.878101 C13.8094146,102.027296 15.9001137,101.601899 18.1373283,101.601899 C20.8006792,101.601899 23.1443927,102.093764 25.1685393,103.077508 C27.1926859,104.061251 28.8838883,105.403909 30.2421973,107.105519 C31.6005062,108.80713 32.6258808,110.787882 33.3183521,113.047834 C34.0108233,115.307786 34.3570537,117.687347 34.3570537,120.186588 L34.3570537,120.186588 Z M69.6462755,100.963798 L55.5039534,119.548487 L41.6812318,100.963798 L39.6038285,100.963798 L54.5451519,120.744926 L38.1656263,141.96178 L40.0832293,141.96178 L55.5039534,121.941365 L71.0045776,141.96178 L73.0020807,141.96178 L56.542655,120.744926 L71.5638785,100.963798 L69.6462755,100.963798 Z M79.127757,156 L79.127757,130.475964 L79.2875572,130.475964 C80.2463635,134.198238 82.1373142,137.189306 84.9604661,139.449258 C87.7836179,141.70921 91.3790876,142.839169 95.7469829,142.839169 C98.5701348,142.839169 101.073647,142.267543 103.257595,141.124273 C105.441542,139.981003 107.26591,138.425648 108.730753,136.45816 C110.195596,134.490673 111.314187,132.204167 112.086558,129.598576 C112.85893,126.992984 113.24511,124.254495 113.24511,121.383027 C113.24511,118.298857 112.845614,115.454019 112.046608,112.848427 C111.247603,110.242836 110.089063,107.982918 108.570953,106.068605 C107.052843,104.154293 105.215159,102.665406 103.057844,101.601899 C100.90053,100.538392 98.4636008,100.006647 95.7469829,100.006647 C93.6695693,100.006647 91.7386689,100.312401 89.9542239,100.923917 C88.1697788,101.535433 86.5851089,102.39952 85.2001665,103.516202 C83.815224,104.632884 82.6167341,105.948954 81.6046608,107.464451 C80.5925875,108.979948 79.8202274,110.641653 79.2875572,112.449614 L79.127757,112.449614 L79.127757,100.963798 L77.5297545,100.963798 L77.5297545,156 L79.127757,156 Z M95.7469829,141.32368 C90.7398834,141.32368 86.718284,139.608801 83.6820641,136.178991 C80.6458442,132.749182 79.127757,127.817243 79.127757,121.383027 C79.127757,118.72426 79.5006205,116.198469 80.2463587,113.805579 C80.9920969,111.412688 82.0707378,109.312294 83.4823138,107.504332 C84.8938897,105.696371 86.6383583,104.260658 88.715772,103.197151 C90.7931856,102.133645 93.1368991,101.601899 95.7469829,101.601899 C98.4103337,101.601899 100.740731,102.133645 102.738244,103.197151 C104.735757,104.260658 106.38701,105.709665 107.692052,107.544214 C108.997093,109.378763 109.982519,111.479157 110.648356,113.84546 C111.314194,116.211763 111.647108,118.72426 111.647108,121.383027 C111.647108,123.775917 111.340827,126.155478 110.728256,128.52178 C110.115686,130.888083 109.17021,133.015065 107.891802,134.902789 C106.613394,136.790514 104.975457,138.332576 102.977944,139.529021 C100.980431,140.725466 98.5701348,141.32368 95.7469829,141.32368 L95.7469829,141.32368 Z M123.365793,141.96178 L123.365793,118.750861 C123.365793,116.517496 123.68539,114.33734 124.324594,112.210326 C124.963798,110.083313 125.949223,108.20891 127.280899,106.587062 C128.612574,104.965215 130.303777,103.689026 132.354557,102.758457 C134.405337,101.827889 136.842266,101.442373 139.665418,101.601899 L139.665418,100.006647 C137.215135,99.9534717 135.07117,100.219344 133.233458,100.804273 C131.395746,101.389202 129.811076,102.18682 128.479401,103.197151 C127.147725,104.207483 126.082401,105.390616 125.283396,106.746588 C124.484391,108.102559 123.898462,109.551565 123.525593,111.09365 L123.365793,111.09365 L123.365793,100.963798 L121.76779,100.963798 L121.76779,141.96178 L123.365793,141.96178 Z M142.99459,121.78184 L177.351644,121.78184 C177.458178,118.963547 177.17853,116.251645 176.512692,113.646053 C175.846855,111.040462 174.78153,108.727369 173.316687,106.706706 C171.851845,104.686043 169.960894,103.06422 167.643779,101.841187 C165.326663,100.618154 162.570137,100.006647 159.374116,100.006647 C157.083634,100.006647 154.846453,100.485218 152.662505,101.442374 C150.478558,102.39953 148.560974,103.795362 146.909696,105.629911 C145.258419,107.46446 143.926763,109.711085 142.91469,112.369852 C141.902617,115.028619 141.396588,118.059568 141.396588,121.462789 C141.396588,124.493784 141.742818,127.325328 142.435289,129.957507 C143.12776,132.589687 144.193085,134.876192 145.631294,136.817092 C147.069504,138.757992 148.920505,140.260173 151.184353,141.32368 C153.448201,142.387186 156.178095,142.892345 159.374116,142.839169 C164.061613,142.839169 168.003313,141.523099 171.199334,138.89092 C174.395355,136.258741 176.286306,132.549816 176.872243,127.764036 L175.274241,127.764036 C174.581769,132.28394 172.810668,135.673817 169.960882,137.933769 C167.111097,140.193721 163.528944,141.32368 159.214315,141.32368 C156.28463,141.32368 153.80775,140.818521 151.783604,139.80819 C149.759457,138.797858 148.108204,137.41532 146.829796,135.660534 C145.551388,133.905748 144.605912,131.845234 143.993342,129.478932 C143.380771,127.112629 143.047857,124.546958 142.99459,121.78184 L142.99459,121.78184 Z M175.753641,120.186588 L142.99459,120.186588 C143.154391,117.315119 143.687053,114.736154 144.592593,112.449614 C145.498132,110.163075 146.683305,108.20891 148.148148,106.587062 C149.612991,104.965215 151.31751,103.728906 153.261756,102.878101 C155.206002,102.027296 157.296701,101.601899 159.533916,101.601899 C162.197267,101.601899 164.54098,102.093764 166.565127,103.077508 C168.589274,104.061251 170.280476,105.403909 171.638785,107.105519 C172.997094,108.80713 174.022468,110.787882 174.71494,113.047834 C175.407411,115.307786 175.753641,117.687347 175.753641,120.186588 L175.753641,120.186588 Z M211.841864,113.087715 L213.439867,113.087715 C213.439867,108.514636 212.108211,105.191227 209.444861,103.117389 C206.78151,101.043551 203.159407,100.006647 198.578444,100.006647 C196.021627,100.006647 193.864345,100.325694 192.106533,100.963798 C190.348722,101.601902 188.910534,102.426108 187.791927,103.436439 C186.673319,104.446771 185.874326,105.563436 185.394923,106.786469 C184.91552,108.009502 184.675822,109.179342 184.675822,110.296024 C184.675822,112.529388 185.075319,114.310735 185.874324,115.640119 C186.673329,116.969502 187.925085,118.006406 189.62963,118.750861 C190.801504,119.282614 192.133159,119.761185 193.624636,120.186588 C195.116112,120.61199 196.847264,121.063974 198.818144,121.542552 C200.575956,121.967955 202.307108,122.393351 204.011652,122.818754 C205.716197,123.244156 207.220967,123.815783 208.526009,124.53365 C209.831051,125.251517 210.896375,126.168778 211.722014,127.28546 C212.547653,128.402142 212.960466,129.864442 212.960466,131.672404 C212.960466,133.42719 212.547653,134.916077 211.722014,136.13911 C210.896375,137.362143 209.844368,138.359165 208.565959,139.130208 C207.287551,139.90125 205.86268,140.459583 204.291303,140.805223 C202.719926,141.150862 201.188522,141.32368 199.697045,141.32368 C194.849747,141.32368 191.134428,140.246895 188.550978,138.093294 C185.967528,135.939693 184.675822,132.549815 184.675822,127.923561 L183.077819,127.923561 C183.077819,133.081569 184.476058,136.856961 187.272576,139.249852 C190.069094,141.642742 194.210543,142.839169 199.697045,142.839169 C201.454857,142.839169 203.225959,142.639765 205.010404,142.24095 C206.794849,141.842135 208.392835,141.190746 209.804411,140.286766 C211.215987,139.382785 212.361211,138.212945 213.240117,136.777211 C214.119022,135.341477 214.558469,133.586717 214.558469,131.512878 C214.558469,129.545391 214.172289,127.950155 213.399917,126.727122 C212.627545,125.504089 211.615487,124.493773 210.363712,123.696142 C209.111937,122.898512 207.700382,122.273712 206.129005,121.821721 C204.557628,121.369731 202.972958,120.931041 201.374948,120.505638 C199.137733,119.920709 197.1802,119.415551 195.502289,118.990148 C193.824378,118.564746 192.266341,118.059588 190.828132,117.474659 C189.443189,116.88973 188.337915,116.052231 187.512276,114.962137 C186.686638,113.872042 186.273824,112.316687 186.273824,110.296024 C186.273824,109.923796 186.380357,109.259115 186.593425,108.301959 C186.806493,107.344802 187.312522,106.374367 188.111527,105.390623 C188.910533,104.406879 190.135655,103.5295 191.786933,102.758457 C193.438211,101.987415 195.702025,101.601899 198.578444,101.601899 C200.549323,101.601899 202.347058,101.814597 203.971702,102.24 C205.596346,102.665403 206.994584,103.343378 208.166459,104.273947 C209.338333,105.204515 210.243859,106.387649 210.883063,107.823383 C211.522267,109.259117 211.841864,111.013877 211.841864,113.087715 L211.841864,113.087715 Z M250.167291,113.087715 L251.765293,113.087715 C251.765293,108.514636 250.433638,105.191227 247.770287,103.117389 C245.106936,101.043551 241.484834,100.006647 236.90387,100.006647 C234.347053,100.006647 232.189772,100.325694 230.43196,100.963798 C228.674149,101.601902 227.235961,102.426108 226.117353,103.436439 C224.998746,104.446771 224.199753,105.563436 223.72035,106.786469 C223.240946,108.009502 223.001248,109.179342 223.001248,110.296024 C223.001248,112.529388 223.400745,114.310735 224.19975,115.640119 C224.998756,116.969502 226.250512,118.006406 227.955056,118.750861 C229.126931,119.282614 230.458586,119.761185 231.950062,120.186588 C233.441539,120.61199 235.172691,121.063974 237.143571,121.542552 C238.901382,121.967955 240.632534,122.393351 242.337079,122.818754 C244.041623,123.244156 245.546394,123.815783 246.851436,124.53365 C248.156478,125.251517 249.221802,126.168778 250.047441,127.28546 C250.873079,128.402142 251.285893,129.864442 251.285893,131.672404 C251.285893,133.42719 250.873079,134.916077 250.047441,136.13911 C249.221802,137.362143 248.169794,138.359165 246.891386,139.130208 C245.612977,139.90125 244.188106,140.459583 242.616729,140.805223 C241.045352,141.150862 239.513948,141.32368 238.022472,141.32368 C233.175173,141.32368 229.459855,140.246895 226.876404,138.093294 C224.292954,135.939693 223.001248,132.549815 223.001248,127.923561 L221.403246,127.923561 C221.403246,133.081569 222.801484,136.856961 225.598002,139.249852 C228.394521,141.642742 232.535969,142.839169 238.022472,142.839169 C239.780283,142.839169 241.551385,142.639765 243.33583,142.24095 C245.120275,141.842135 246.718262,141.190746 248.129838,140.286766 C249.541414,139.382785 250.686637,138.212945 251.565543,136.777211 C252.444449,135.341477 252.883895,133.586717 252.883895,131.512878 C252.883895,129.545391 252.497715,127.950155 251.725343,126.727122 C250.952972,125.504089 249.940913,124.493773 248.689139,123.696142 C247.437364,122.898512 246.025809,122.273712 244.454432,121.821721 C242.883055,121.369731 241.298385,120.931041 239.700375,120.505638 C237.46316,119.920709 235.505626,119.415551 233.827715,118.990148 C232.149804,118.564746 230.591767,118.059588 229.153558,117.474659 C227.768616,116.88973 226.663342,116.052231 225.837703,114.962137 C225.012064,113.872042 224.599251,112.316687 224.599251,110.296024 C224.599251,109.923796 224.705783,109.259115 224.918851,108.301959 C225.13192,107.344802 225.637949,106.374367 226.436954,105.390623 C227.235959,104.406879 228.461082,103.5295 230.11236,102.758457 C231.763637,101.987415 234.027451,101.601899 236.90387,101.601899 C238.87475,101.601899 240.672485,101.814597 242.297129,102.24 C243.921773,102.665403 245.320011,103.343378 246.491885,104.273947 C247.66376,105.204515 248.569285,106.387649 249.208489,107.823383 C249.847694,109.259117 250.167291,111.013877 250.167291,113.087715 L250.167291,113.087715 Z" id="express" sketch:type="MSShapeGroup"></path>
        </g>
    </g>
</svg>